<svg width="36" height="36" viewBox="0 0 36 36" fill="none" xmlns="http://www.w3.org/2000/svg">
<path d="M32 15.959C32 9.32548 25.6774 4 18 4C10.3226 4 4 9.32548 4 15.959C4 22.5925 8.96774 26.7968 15.7419 27.7311C16.1935 27.8245 16.8258 28.0114 17.0065 28.4785C17.0968 28.9457 17.0968 29.3194 17.0065 29.7866L16.8258 31.0011C16.7355 31.3749 16.5548 32.496 18 31.7486C19.4452 31.0011 26.0387 26.7968 29.0194 23.2465C30.9161 21.2845 31.9097 18.7619 32 15.959ZM13.0323 19.4159C13.0323 19.6027 12.9419 19.6962 12.7613 19.6962H8.69677V19.5093V13.0627C8.69677 12.8758 8.7871 12.7824 8.96774 12.7824H9.87097C10.0516 12.7824 10.1419 12.8758 10.1419 13.0627V18.1079H12.8516C13.0323 18.1079 13.1226 18.2013 13.1226 18.3881L13.0323 19.4159ZM15.3806 19.4159C15.3806 19.6027 15.2903 19.6962 15.1097 19.6962H14.2065C14.0258 19.6962 13.9355 19.6027 13.9355 19.4159V13.0627C13.9355 12.8758 14.0258 12.7824 14.2065 12.7824H15.2C15.3806 12.7824 15.471 12.8758 15.471 13.0627L15.3806 19.4159ZM22.1548 19.4159C22.1548 19.6027 22.0645 19.6962 21.8839 19.6962H20.7097L17.9097 15.6787V19.5093C17.9097 19.6962 17.8194 19.7896 17.6387 19.7896H16.6452C16.4645 19.7896 16.3742 19.6962 16.3742 19.5093V13.0627C16.3742 12.8758 16.4645 12.7824 16.6452 12.7824H17.8194L20.6194 16.7064V13.0627C20.6194 12.8758 20.7097 12.7824 20.8903 12.7824H21.8839C22.0645 12.7824 22.1548 12.8758 22.1548 13.0627V19.4159ZM27.5742 13.997C27.5742 14.1838 27.4839 14.2772 27.3032 14.2772H24.5935V15.3984H27.3032C27.4839 15.3984 27.5742 15.4918 27.5742 15.6787V16.7064C27.5742 16.8933 27.4839 16.9867 27.3032 16.9867H24.5935V18.1079H27.3032C27.4839 18.1079 27.5742 18.2013 27.5742 18.3881V19.4159C27.5742 19.6027 27.4839 19.6962 27.3032 19.6962H23.2387V19.5093V13.0627V12.8758H27.3935C27.5742 12.8758 27.6645 12.9692 27.6645 13.1561L27.5742 13.997Z" fill="#1F1F1F"/>
</svg>
