<svg width="148" height="36" viewBox="0 0 148 36" fill="none" xmlns="http://www.w3.org/2000/svg">
<path d="M35.2615 0.404297H0.791991C0.679186 0.404297 0.586891 0.496446 0.586891 0.609072V28.3637C0.584328 28.461 0.653549 28.548 0.750971 28.5685C1.28936 28.6657 3.10962 28.9908 5.42211 29.4055C6.14252 25.4636 6.8937 21.3783 7.20392 19.7657C7.59617 17.7129 8.14994 12.9186 11.3162 12.9186C11.0957 12.9186 8.08328 12.8162 6.41941 9.59099C5.61696 8.03471 4.68119 4.77111 4.42738 3.86243C4.42225 3.84707 4.41969 3.82915 4.41969 3.81379C4.41969 3.71141 4.50429 3.62694 4.60684 3.62694C5.96306 3.6295 12.7467 3.63973 21.4071 3.63973C27.2908 3.63973 32.9619 7.87601 32.1825 14.8742C31.498 21.0353 27.4806 25.5353 21.8942 25.5353H16.7103C16.6154 25.5353 16.5359 25.6044 16.5257 25.6991L15.5822 31.2408C17.2358 31.5428 18.5844 31.7911 19.3022 31.9293C21.1225 32.28 24.8937 32.9993 25.9116 35.1622C25.9654 35.2595 26.091 35.2953 26.1884 35.2416C26.2346 35.216 26.2679 35.175 26.2833 35.1238C26.5397 34.0283 27.3011 32.2672 29.4905 31.1333C31.1083 30.2937 34.5719 29.3005 35.3231 29.0983C35.4077 29.0727 35.4666 28.9959 35.4666 28.9064V0.609072C35.4666 0.496446 35.3743 0.404297 35.2615 0.404297Z" fill="white"/>
<path d="M27.0022 15.3967H24.3088L24.7568 12.6981H26.4269C26.4905 12.6981 26.5462 12.6525 26.5568 12.5882L27.1215 9.2383C27.14 9.16862 27.0976 9.09626 27.026 9.0775C27.0181 9.07482 27.0101 9.07483 27.0022 9.07483H25.3586L25.7377 6.70312C25.7562 6.59592 25.6847 6.49408 25.5813 6.47532C25.5707 6.47264 25.5574 6.47265 25.5468 6.47265H22.3233C22.2278 6.47265 22.1456 6.54232 22.1297 6.6388L21.7347 9.07483H19.0149L19.4125 6.69508C19.4311 6.58788 19.3595 6.48605 19.2535 6.46997C19.2428 6.46729 19.2296 6.46729 19.219 6.46729H15.9981C15.9027 6.46729 15.8231 6.53696 15.8072 6.63076L15.399 9.07483H12.0932C12.0217 9.07483 11.9633 9.13379 11.9633 9.20614V9.20883C11.9633 10.8972 13.1642 12.3416 14.8078 12.6337L14.3518 15.3967H12.0906C12.019 15.3967 11.9607 15.4557 11.9607 15.528V15.5307C11.9607 16.8305 12.6764 18.0203 13.819 18.6179L13.363 21.389C13.3471 21.4988 13.4214 21.6007 13.5301 21.6168C13.538 21.6168 13.5486 21.6194 13.5566 21.6194H16.7801C16.8756 21.6194 16.9577 21.5498 16.971 21.456L17.3739 19.0146H20.0885L19.6962 21.3943C19.6776 21.5015 19.7518 21.6034 19.8579 21.6221C19.8685 21.6248 19.8791 21.6248 19.887 21.6248H23.1106C23.206 21.6248 23.2882 21.5551 23.3041 21.4613L23.707 19.0119H26.419C26.4826 19.0119 26.5356 18.9663 26.5489 18.902L27.1135 15.5521C27.1268 15.4825 27.0791 15.4128 27.0101 15.3994C27.0101 15.3967 27.0075 15.3967 27.0022 15.3967ZM17.9836 15.3967L18.4211 12.6981H21.1356L20.6876 15.3967H17.9836Z" fill="white"/>
<path d="M48.584 20.9162C48.2381 22.5576 47.6573 24.1387 46.8568 25.6142L45.324 24.6389C46.0689 23.372 46.6043 21.992 46.9073 20.5567L48.584 20.9162ZM45.6674 16.7585V15.0668H47.4755C47.2785 14.5038 47.0335 13.9583 46.7457 13.4355L48.3669 12.8171C48.6674 13.5511 48.9224 14.3027 49.1345 15.0668H50.7002C50.9502 14.3404 51.1825 13.5963 51.3795 12.8171L53.0335 13.4028C52.8517 13.9734 52.632 14.5289 52.3744 15.0668H54.1193V16.7585H50.8517V18.1939H53.8264V19.878H50.8517V26.1723H49.0007V19.8705H45.9553V18.1863H49.0007V16.7585H45.6674ZM48.9224 11.0424C48.7204 10.6201 48.4906 10.2104 48.2305 9.81826L50.1522 9.49902C50.3668 9.96154 50.5537 10.4743 50.7759 11.0424H54.0158V12.7442H45.8416V11.0424H48.9224ZM53.7405 23.4852L52.1926 24.0859C51.9224 22.9925 51.5865 21.9141 51.1875 20.8609L52.7204 20.4612C53.1092 21.4516 53.4476 22.4621 53.7304 23.4877H53.7405V23.4852ZM61.6319 11.4698C60.0107 11.9851 58.3264 12.2892 56.6269 12.3722V15.1196H62.0056V16.8742H60.3667V26.1094H58.5158V16.8742H56.6117V18.5407C56.5234 21.6954 55.8289 24.194 54.5107 26.0717L53.1749 24.6741C54.19 23.2011 54.7431 21.1625 54.8138 18.5407V10.864C56.8238 10.8564 58.8188 10.5045 60.7077 9.81826L61.6319 11.4698Z" fill="white"/>
<path d="M74.6659 15.7222H69.2341V26.1717H67.3134V10.2563H74.6659V15.7222ZM72.7819 11.6096H69.2393V12.3215H72.7819V11.6096ZM69.2393 14.369H72.7819V13.5662H69.2393V14.369ZM70.442 18.0727V16.5049H79.8173V18.0727H78.5989V22.6473H80.0768V24.2151H78.5989V25.8713H76.8984V24.2151H70.2691V22.6473H71.6159V18.0727H70.442ZM73.3217 18.0727V18.8023H76.9062V18.0727H73.3217ZM76.9088 20.7412V20.0267H73.3164V20.7387L76.9088 20.7412ZM76.9088 22.6473V21.9707H73.3164V22.6473H76.9088ZM75.9655 15.7399V10.2563H83.2368V24.4272C83.2368 25.5683 82.6106 26.1364 81.3607 26.1364C80.7685 26.1364 80.1789 26.101 79.6077 26.0632L79.1649 24.407C79.6654 24.4752 80.1737 24.513 80.6794 24.5156C81.0856 24.5156 81.3057 24.2833 81.3057 23.8541V15.7374L75.9655 15.7399ZM81.324 11.6449H77.8443V12.3215H81.3188L81.324 11.6449ZM77.8443 14.3867H81.3188V13.5687H77.8443V14.3867Z" fill="white"/>
<path d="M101.863 12.8533L101.716 14.4146H104.468V15.8702H101.567L101.423 17.4164L90.9087 17.434L91.147 15.8878H88.5446V14.4323H91.3695L91.5947 12.8659L101.863 12.8533ZM102.169 18.0031L102.18 23.8631H100.407C101.627 24.0696 102.837 24.339 104.028 24.6639L103.421 26.1395C101.606 25.4974 99.7423 25.0013 97.8415 24.6563L98.284 23.8555H94.5924L95.1868 24.6185C93.8934 25.2405 92.0319 25.7593 89.6154 26.1723L88.7462 24.7344C90.2542 24.5556 91.7465 24.271 93.2101 23.8807H90.8669L90.8564 18.0207L102.169 18.0031ZM104.235 13.8959H102.426V12.2112L90.571 12.2288V13.916H88.7593V10.7758L95.5166 10.7632C95.3805 10.4408 95.226 10.1286 95.0532 9.82388L96.9906 9.49902C97.1582 9.87172 97.3231 10.2998 97.4907 10.7607L104.232 10.7506L104.235 13.8959ZM100.36 19.6576V19.0557L92.6577 19.0683V19.6702L100.36 19.6576ZM100.36 21.1837V20.5969L92.6577 20.6095V21.1962L100.36 21.1837ZM100.36 22.1431L92.6577 22.1557V22.7576L100.36 22.745V22.1431ZM95.425 16.3789L95.535 15.6863H92.8959L92.7676 16.3789H95.425ZM95.6999 14.6564L95.8282 13.9462H93.2232L93.0949 14.669L95.6999 14.6564ZM97.1058 16.3763H99.7842L99.8732 15.6838H97.2158L97.1058 16.3763ZM97.3807 14.6539H100.004L100.077 13.9437H97.5116L97.3807 14.6539Z" fill="white"/>
<path d="M111.21 20.0685C111.18 21.7733 111.052 23.4754 110.827 25.1648L109.776 24.8418C110.035 23.2242 110.187 21.5887 110.23 19.9506L111.21 20.0685ZM116.808 17.7254C116.808 21.8014 116.639 24.1958 116.321 24.8854C116.004 25.575 115.363 25.9159 114.438 25.9185C114.171 25.9185 113.886 25.9005 113.601 25.8826L113.243 24.365C113.548 24.4188 113.858 24.4496 114.168 24.4522C114.809 24.4522 115.172 24.1086 115.267 23.4319C115.285 23.2678 115.303 23.0704 115.338 22.8525L114.609 23.1447C114.448 22.0604 114.251 20.9914 114.037 19.9634L114.854 19.7275C115.068 20.6684 115.23 21.5348 115.373 22.3295C115.409 21.5682 115.424 20.5581 115.421 19.3123H110.426L110.411 9.94764H116.76V11.555H114.756V12.6753H116.266V14.1211H114.756V15.2208H116.266V16.6667H114.756V17.7152L116.808 17.7254ZM112.708 24.5111L111.642 24.6572C111.621 22.7243 111.584 21.2221 111.528 20.1736L112.454 20.0634C112.562 21.1503 112.653 22.632 112.708 24.5111ZM112.015 11.5678V12.6881H113.17V11.5678H112.015ZM112.015 15.2362H113.182V14.1339H112.025L112.015 15.2362ZM112.015 17.7331H113.182V16.6846H112.025L112.015 17.7331ZM114.193 23.5498L113.233 23.7856C113.107 22.4116 112.963 21.1836 112.781 20.1351L113.636 19.9531C113.86 21.0555 114.042 22.2501 114.203 23.5498H114.193ZM117.764 26.1723L116.445 25.0007C117.582 23.8779 118.434 22.3936 118.964 20.5504L120.512 21.1811C120.388 21.5425 120.265 21.8681 120.159 22.2014C120.613 22.6192 121.036 23.073 121.425 23.5549L120.288 24.7136C120.056 24.3522 119.793 24.0112 119.503 23.6933C119.042 24.5983 118.457 25.434 117.764 26.1723ZM117.494 14.9107L116.551 13.4469C118.253 12.524 119.687 11.1628 120.706 9.49902H122.181C123.006 10.9346 124.425 12.2164 126.437 13.3315L125.497 14.7979C125.015 14.5261 124.571 14.2544 124.163 13.9673V14.6774H118.689V14.1262C118.306 14.4108 117.907 14.6697 117.496 14.9081V14.9107H117.494ZM121.248 15.5746V20.4376H117.373V15.5746H121.248ZM119.829 16.9666H118.797V19.061H119.829V16.9666ZM121.432 11.1269C120.956 11.86 120.409 12.5419 119.801 13.1649H123.144C122.489 12.565 121.914 11.8754 121.437 11.1217L121.432 11.1269ZM121.901 26.1646L120.6 24.9854C121.737 23.8984 122.569 22.4346 123.119 20.6068L124.667 21.2375C124.526 21.6348 124.402 22.0168 124.266 22.3757C125.061 23.1576 125.794 24.0035 126.457 24.9033L125.27 26.1261C124.773 25.3186 124.206 24.5573 123.575 23.8523C123.132 24.6982 122.569 25.4776 121.909 26.1595L121.901 26.1646ZM125.618 15.5669V20.43H121.76V15.5669H125.618ZM124.208 16.9538H123.195V19.0508H124.208V16.9538Z" fill="white"/>
<path d="M131.85 14.3676V10.4495H138.666C138.424 9.98798 138.148 9.54197 137.846 9.11671L139.991 8.74072C140.246 9.25155 140.502 9.81943 140.739 10.4392L147.591 10.4288V14.3469H145.9V15.187H143.319C144.489 16.1153 145.58 17.1422 146.578 18.2546L145.18 19.6834C144.856 19.2218 144.505 18.7836 144.126 18.3687C142.999 18.462 141.852 18.5554 140.69 18.6306V20.1657H146.271V21.9419H140.69V23.6248L147.689 23.6144V25.3881L131.765 25.414V23.6377H138.764V21.9549H133.229V20.1812H138.764V18.7602C137.166 18.8562 135.529 18.9495 133.858 19.0247L133.42 17.3756C133.562 17.3392 133.701 17.2822 133.83 17.2096C134.41 16.9347 135.134 16.2579 136.044 15.1948H133.554V14.3624L131.85 14.3676ZM145.665 12.2232L133.779 12.2439V13.4808L145.665 13.4627V12.2232ZM136.475 17.3237C138.566 17.2278 140.654 17.0981 142.729 16.927L141.633 15.9416L142.394 15.1922H138.212C137.692 15.9468 137.109 16.6599 136.475 17.3237Z" fill="white"/>
</svg>
