<svg width="110" height="48" viewBox="0 0 110 48" fill="none" xmlns="http://www.w3.org/2000/svg">
<g clip-path="url(#clip0)">
<path d="M0.992979 13.5411C2.28822 15.2401 5.82855 17.7886 7.70974 16.9391C8.65342 16.5144 9.94866 14.1382 6.29114 13.0424C5.05758 12.6669 4.55182 11.9405 3.70682 10.9494C3.53848 10.7676 3.33521 10.6214 3.10912 10.5195C2.88303 10.4177 2.63872 10.3622 2.39073 10.3565C2.14273 10.3507 1.89611 10.3948 1.66553 10.4861C1.43494 10.5774 1.22511 10.714 1.04849 10.8879C0.866708 11.0563 0.720715 11.2595 0.619188 11.4854C0.517661 11.7113 0.462674 11.9552 0.457496 12.2027C0.452317 12.4502 0.497053 12.6963 0.589043 12.9262C0.681034 13.1561 0.818401 13.3652 0.992979 13.5411Z" fill="white"/>
<path d="M37.1118 15.5912C37.5385 15.5091 37.9152 15.2615 38.1592 14.9026C38.4032 14.5436 38.4945 14.1027 38.4132 13.6767C38.2405 12.7779 37.6237 12.267 36.4826 12.3778C34.4718 12.5037 32.4858 12.8886 30.5739 13.5228C29.6425 13.8183 29.5192 14.8894 29.9571 15.6835C30.395 16.4776 30.8391 16.7362 32.0727 16.4468L37.1118 15.5912Z" fill="white"/>
<path d="M26.6389 2.01754C25.2573 2.63313 23.3021 6.2405 23.0985 6.70835C22.895 7.1762 22.05 8.78904 22.7408 9.70627C23.0006 10.0993 23.4041 10.3753 23.8651 10.4754C24.3261 10.5754 24.808 10.4916 25.2079 10.2418C26.4908 9.62625 26.0282 7.16388 28.6927 4.91698C29.0475 4.65761 29.2888 4.27212 29.3669 3.8402C29.445 3.40827 29.3538 2.96292 29.1122 2.5962C28.8518 2.20292 28.4506 1.92391 27.9907 1.81632C27.5309 1.70874 27.0472 1.78073 26.6389 2.01754Z" fill="white"/>
<path d="M9.71427 3.31018C10.0263 5.66318 10.7618 7.94053 11.8853 10.0324C12.5021 10.9681 13.341 12.0393 14.6794 11.596C16.2522 11.0666 15.9931 9.5769 15.3517 8.30878C14.5807 6.41892 13.6864 4.20895 13.5692 2.25137C13.5409 1.99221 13.4613 1.74126 13.3348 1.51316C13.2084 1.28505 13.0377 1.08435 12.8328 0.922765C12.6278 0.761178 12.3927 0.641938 12.141 0.571997C11.8894 0.502057 11.6264 0.482817 11.3672 0.515399C9.25168 0.767791 9.71427 3.31018 9.71427 3.31018Z" fill="white"/>
<path d="M8.3389 22.8428L0 34.7237L10.5346 41.9446L8.01818 27.8414C7.72847 26.1733 7.83837 24.4604 8.3389 22.8428Z" fill="white"/>
<path d="M29.143 16.0099C28.6187 15.0558 28.7791 13.2398 29.9016 12.8827L30.6911 12.6365L26.608 9.90327C26.2819 10.3488 25.8887 10.7413 25.4423 11.0667C23.7461 12.1256 22.1733 10.7651 21.7416 10.168C21.2296 9.42927 21.6737 7.5948 22.0068 6.76376L20.4278 5.60645L12.2308 17.3027C13.7122 16.1958 15.4529 15.486 17.287 15.2409C19.1212 14.9958 20.9877 15.2236 22.7086 15.9025C24.4296 16.5814 25.9477 17.6888 27.1183 19.1193C28.2889 20.5498 29.073 22.2556 29.3958 24.0742C29.7357 25.961 29.561 27.9043 28.8901 29.7007L37.562 17.3519L36.1866 16.4347L32.6093 17.0503C30.5492 17.6905 29.6919 16.9579 29.143 16.0099Z" fill="white"/>
<path d="M13.816 35.6038L15.543 45.3733L17.1343 46.4629L25.726 34.2188C24.0993 35.5968 22.1004 36.4636 19.981 36.7101C17.8617 36.9565 15.7166 36.5716 13.816 35.6038Z" fill="white"/>
<path d="M19.8481 32.3595C21.1176 32.1413 22.2936 31.5518 23.2271 30.6659C24.1607 29.7799 24.8098 28.6374 25.0921 27.3829C25.3745 26.1285 25.2775 24.8186 24.8133 23.6193C24.3492 22.42 23.5388 21.3851 22.4848 20.6458C21.4309 19.9065 20.1808 19.4961 18.893 19.4666C17.6051 19.437 16.3374 19.7896 15.2506 20.4797C14.1637 21.1699 13.3065 22.1664 12.7876 23.3432C12.2686 24.52 12.1114 25.824 12.3357 27.0901C12.6353 28.7813 13.5939 30.2853 15.0018 31.2728C16.4097 32.2604 18.1522 32.6511 19.8481 32.3595Z" fill="white"/>
<path fill-rule="evenodd" clip-rule="evenodd" d="M105.396 41.76C105.694 41.5953 105.956 41.3734 106.168 41.1072C106.379 40.841 106.536 40.5356 106.629 40.2087L109.67 29.916H101.091L98.9936 37.0323C99.2733 37.1299 99.5302 37.2831 99.7488 37.4827C99.9674 37.6822 100.143 37.924 100.265 38.1934C100.388 38.4627 100.454 38.754 100.46 39.0496C100.466 39.3452 100.412 39.639 100.301 39.9132C99.9864 40.8758 99.3451 41.6987 98.4879 42.2402L97.5627 44.0869C97.492 44.248 97.3779 44.3862 97.233 44.4862C97.0882 44.5862 96.9183 44.6441 96.7424 44.6533C96.7424 44.6533 96.0207 44.4686 95.811 45.8845C95.6383 47.0664 96.6499 46.9186 96.6499 46.9186H97.4517C97.9109 46.9394 98.3659 46.8227 98.7582 46.5836C99.1505 46.3445 99.4623 45.9939 99.6536 45.5767L101.578 41.9816H102.306L101.368 45.1519C101.035 46.2805 101.446 46.8694 102.602 46.9186H105.205C105.205 46.9186 105.821 46.9864 106.185 45.749C106.549 44.5117 105.871 44.6594 105.871 44.6594H104.976C104.687 44.6594 104.588 44.5178 104.668 44.2347L105.396 41.76ZM103.545 31.8367H106.216L105.76 33.1417H103.089L103.545 31.8367ZM103.872 39.2792C103.846 39.4056 103.774 39.5183 103.671 39.5963C103.568 39.6744 103.44 39.7126 103.311 39.7039H101.072L101.498 38.3435H104.175L103.872 39.2792ZM102.022 36.4844L102.46 35.1054H105.137L104.699 36.4844H102.022Z" fill="white"/>
<path fill-rule="evenodd" clip-rule="evenodd" d="M94.1333 39.9133C94.3306 39.3162 94.6525 38.7677 95.0777 38.304C95.503 37.8403 96.022 37.4719 96.6005 37.2231C97.6387 36.1785 98.5762 35.0387 99.4007 33.8189C99.5721 33.4323 99.6441 33.0091 99.6104 32.5877C99.4994 32.2676 99.191 32.1076 98.679 32.1076H97.3715L97.7354 30.8764C97.7894 30.7489 97.8029 30.6081 97.7742 30.4727C97.7456 30.3373 97.676 30.214 97.575 30.1192C97.3098 29.9836 97.0157 29.9139 96.7177 29.9161C96.3412 29.9173 95.9706 30.0103 95.6383 30.1869C95.3638 30.3447 95.1476 30.5864 95.0215 30.8764L94.6576 32.1076H93.5042C93.1987 32.0901 92.8975 32.1866 92.6592 32.3784C92.4445 32.617 92.2827 32.8981 92.1843 33.2033C92.1007 33.4488 92.1007 33.715 92.1843 33.9605C92.2602 34.0663 92.3601 34.1527 92.4759 34.2127C92.5917 34.2726 92.72 34.3043 92.8504 34.3052H96.4586C96.6067 34.3052 93.8805 37.2293 91.2036 38.836C90.3463 39.1561 90.0317 39.704 90.26 40.4858C90.2945 40.6188 90.3576 40.7428 90.445 40.8491C90.5323 40.9554 90.6417 41.0415 90.7657 41.1014C90.9323 41.2368 91.216 41.2368 91.6107 41.1014C91.9993 40.8243 92.3508 40.5966 92.6592 40.4119L91.0001 46.0446C90.9556 46.154 90.9511 46.2755 90.9871 46.388C91.0232 46.5005 91.0976 46.5968 91.1975 46.6602C91.43 46.8152 91.7083 46.8868 91.9869 46.8633C92.3247 46.8675 92.6594 46.7982 92.9676 46.6602C93.1106 46.6112 93.2405 46.5303 93.3474 46.4236C93.4543 46.3169 93.5353 46.1873 93.5844 46.0446L94.7501 42.3756C94.4148 42.0721 94.1773 41.6762 94.0675 41.2378C93.9577 40.7995 93.9806 40.3386 94.1333 39.9133Z" fill="white"/>
<path d="M96.4586 42.0555C97.1082 42.0481 97.7403 41.8449 98.272 41.4725C98.8036 41.1 99.21 40.5758 99.4377 39.9686C99.5485 39.7212 99.5945 39.4499 99.5716 39.1799C99.5486 38.9099 99.4573 38.6502 99.3063 38.425C99.1553 38.1999 98.9495 38.0167 98.7082 37.8926C98.4669 37.7685 98.1979 37.7076 97.9266 37.7155C97.2762 37.7225 96.6431 37.9254 96.1104 38.2979C95.5776 38.6703 95.1701 39.1947 94.9414 39.8024C94.8303 40.0502 94.7842 40.3222 94.8075 40.5927C94.8308 40.8632 94.9226 41.1233 95.0743 41.3486C95.2261 41.574 95.4327 41.7571 95.6749 41.8807C95.9171 42.0044 96.1868 42.0645 96.4586 42.0555Z" fill="white"/>
<path d="M55.8374 34.2682H53.95C53.825 34.2671 53.7025 34.2336 53.5944 34.1711C53.4863 34.1085 53.3963 34.0189 53.3333 33.9112C53.2215 33.6197 53.2085 33.2997 53.2962 33.0001C53.3669 32.7099 53.5113 32.4427 53.7157 32.2245C53.8237 32.0969 53.9576 31.9936 54.1086 31.9215C54.2596 31.8493 54.4242 31.8099 54.5915 31.8059H56.4973L56.9106 30.2607C57.0102 29.9508 57.2043 29.6797 57.4657 29.4851C57.7686 29.3502 58.0962 29.2789 58.4279 29.2758C58.7056 29.2508 58.9831 29.325 59.2112 29.4851C59.3222 29.5769 59.402 29.7007 59.4396 29.8397C59.4771 29.9786 59.4706 30.1257 59.4209 30.2607L59.0015 31.8059H63.319L63.7322 30.2607C63.8318 29.9508 64.0259 29.6797 64.2873 29.4851C64.5907 29.3515 64.9179 29.2803 65.2495 29.2758C65.5273 29.2492 65.8054 29.3235 66.0328 29.4851C66.1438 29.5769 66.2236 29.7007 66.2612 29.8397C66.2987 29.9786 66.2922 30.1257 66.2425 30.2607L65.8293 31.8059H67.7783C67.8889 31.8161 67.9952 31.8535 68.0877 31.9147C68.1803 31.9759 68.2562 32.0591 68.3087 32.1568C68.4205 32.4504 68.4335 32.7723 68.3457 33.074C68.257 33.3794 68.1082 33.664 67.9078 33.9112C67.8065 34.02 67.6845 34.1075 67.549 34.1688C67.4135 34.2301 67.2671 34.2639 67.1183 34.2682H65.1693L64.0221 38.522H66.9518C67.0624 38.5322 67.1687 38.5696 67.2613 38.6308C67.3538 38.692 67.4297 38.7752 67.4822 38.8729C67.594 39.1665 67.607 39.4885 67.5192 39.7901C67.4295 40.0969 67.2808 40.3834 67.0813 40.6335C66.8748 40.8498 66.5911 40.9759 66.2919 40.9843H51.193C51.0691 40.9816 50.9478 40.948 50.8401 40.8868C50.7325 40.8255 50.6418 40.7385 50.5762 40.6335C50.4738 40.3363 50.4738 40.0134 50.5762 39.7162C50.6444 39.425 50.7892 39.1573 50.9956 38.9406C51.0962 38.8198 51.2202 38.7205 51.3601 38.6486C51.4999 38.5767 51.6529 38.5336 51.8098 38.522H54.6655L55.8374 34.2682ZM61.4501 38.4481L62.5541 34.336H58.4094L57.3115 38.4481H61.4501ZM55.2329 41.8585C55.6263 41.8125 56.0238 41.8125 56.4172 41.8585C56.8798 41.9016 57.1573 42.0124 57.2498 42.1786C57.3423 42.3448 57.367 42.548 57.1326 42.7142C55.4652 44.1189 53.6542 45.3445 51.7296 46.3708C51.3679 46.5247 50.9746 46.5902 50.5824 46.5616C50.1562 46.492 49.7414 46.3657 49.3488 46.1861C49.2475 46.1138 49.1616 46.0221 49.096 45.9165C49.0303 45.8108 48.9863 45.6932 48.9664 45.5705C48.9664 45.4228 49.3858 45.1273 50.3048 44.6964C51.6909 44.0038 53.0067 43.1792 54.2338 42.234C54.5207 42.0102 54.8693 41.8792 55.2329 41.8585ZM59.828 43.4098C59.5319 43.2559 59.4456 43.0774 59.5874 42.8619C59.7766 42.6179 60.0311 42.4323 60.3214 42.3263C60.651 42.1912 61.0016 42.1142 61.3576 42.0986C61.7208 42.0555 62.088 42.1357 62.4 42.3263C63.8998 43.2703 65.2792 44.3928 66.5077 45.669C66.7051 45.8721 66.7174 46.063 66.5077 46.2353C66.214 46.4116 65.8961 46.5444 65.564 46.6293C65.1837 46.7595 64.7809 46.8119 64.3798 46.7832C64.0401 46.7268 63.7151 46.6033 63.4238 46.42C62.3072 45.3229 61.1048 44.3163 59.828 43.4098Z" fill="white"/>
<path d="M74.7849 34.7364H77.3631C77.4635 34.7779 77.5665 34.8128 77.6715 34.8411C77.6877 34.967 77.6772 35.0949 77.6406 35.2166C77.6083 35.3314 77.5562 35.4398 77.4864 35.5367C77.3851 35.639 77.2482 35.6986 77.104 35.7029H74.5259C74.4569 35.7025 74.3888 35.6874 74.326 35.6588C74.2633 35.6301 74.2074 35.5885 74.162 35.5367C74.1461 35.4107 74.1566 35.2829 74.1928 35.1612C74.2275 35.0472 74.2795 34.9393 74.347 34.8411C74.4807 34.767 74.6321 34.7308 74.7849 34.7364ZM74.2483 36.4724H76.8943C76.9963 36.5171 77.1014 36.5541 77.2089 36.5832C77.2194 36.7075 77.2068 36.8327 77.1719 36.9525C77.1412 37.0699 77.0889 37.1805 77.0177 37.2788C76.915 37.3784 76.7784 37.4356 76.6353 37.4389H74.0139C73.9456 37.4381 73.8781 37.4235 73.8156 37.396C73.753 37.3685 73.6967 37.3286 73.65 37.2788C73.6329 37.1525 73.6456 37.0239 73.6871 36.9033C73.7144 36.7878 73.7648 36.6789 73.8351 36.5832C73.9599 36.5087 74.1029 36.4703 74.2483 36.4724Z" fill="white"/>
<path d="M82.0321 34.7358H84.6103C84.7107 34.7773 84.8137 34.8123 84.9186 34.8405C84.948 34.9639 84.948 35.0925 84.9186 35.216C84.8891 35.3319 84.8367 35.4407 84.7644 35.5361C84.6639 35.6396 84.5265 35.6993 84.382 35.7023H81.8039C81.7349 35.7019 81.6668 35.6869 81.6041 35.6582C81.5413 35.6296 81.4854 35.5879 81.44 35.5361C81.4235 35.4098 81.4362 35.2813 81.477 35.1606C81.5068 35.0459 81.5569 34.9375 81.625 34.8405C81.7496 34.7717 81.8897 34.7357 82.0321 34.7358ZM81.5017 36.4718H84.1415C84.2434 36.5165 84.3486 36.5535 84.4561 36.5826C84.4791 36.7047 84.4791 36.8299 84.4561 36.952C84.42 37.0673 84.3681 37.1771 84.3019 37.2782C84.1891 37.3868 84.0391 37.4484 83.8825 37.4506H81.2426C81.103 37.448 80.97 37.3904 80.8726 37.2905C80.8617 37.1642 80.8743 37.0369 80.9096 36.915C80.9391 36.7992 80.9915 36.6903 81.0638 36.5949C81.1921 36.5117 81.3425 36.4688 81.4955 36.4718H81.5017Z" fill="white"/>
<path d="M86.1522 43.5084C86.1986 43.3791 86.215 43.241 86.2 43.1045C86.1851 42.9679 86.1392 42.8366 86.0658 42.7204C85.9795 42.5604 85.6341 42.468 85.3935 42.468C85.2163 42.4804 85.0437 42.5307 84.8878 42.6158L86.0473 38.3066H71.5098L70.1713 43.2806C70.0171 43.8962 70.0048 44.2717 70.1713 44.4687C70.2892 44.5888 70.4305 44.6835 70.5864 44.747C70.7423 44.8106 70.9096 44.8415 71.078 44.8381H75.8026L75.6422 45.4537C75.5546 45.6864 75.5268 45.9373 75.5613 46.1836C75.5958 46.4298 75.6914 46.6635 75.8396 46.8634C75.9706 47.0232 76.1399 47.1476 76.3317 47.2251C76.5236 47.3025 76.7319 47.3306 76.9374 47.3066H84.0675C84.4036 47.2649 84.7095 47.0923 84.9186 46.8264C85.3072 46.377 85.7328 45.1828 86.1522 43.5084ZM76.8696 40.7382H73.2614L73.4896 39.8887H77.0978L76.8696 40.7382ZM76.2528 43.0836H72.6446L72.8729 42.2341H76.481L76.2528 43.0836ZM79.5649 39.9133H83.1731L82.9449 40.7567H79.3367L79.5649 39.9133ZM78.9482 42.2218H82.5563L82.3343 43.0652H78.72L78.9482 42.2218ZM83.1978 45.4537H78.3314C78.0908 45.4537 78.2019 45.0658 78.282 44.8381H82.4207C83.0374 44.8381 83.7652 44.8873 84.0428 44.5918C84.0304 44.5918 83.8824 45.4537 83.1978 45.4537Z" fill="white"/>
<path d="M81.7052 31.7507H87.7805C88.0338 31.7357 88.2764 31.6432 88.475 31.4856C88.6737 31.3281 88.8189 31.1133 88.8907 30.8704C88.929 30.771 88.9423 30.6639 88.9295 30.5582C88.9167 30.4526 88.8782 30.3516 88.8174 30.2642C88.7566 30.1768 88.6753 30.1056 88.5806 30.0567C88.4858 30.0079 88.3806 29.9829 88.274 29.9839H73.7241C73.4678 29.9968 73.222 30.0891 73.0208 30.248C72.8196 30.4069 72.673 30.6245 72.6015 30.8704C72.3733 31.7322 73.3047 31.7568 73.3355 31.7568H79.3059L79.0962 32.5263H72.1636L71.0966 36.5153C71.0517 36.6373 71.0377 36.7684 71.0559 36.8971C71.0741 37.0257 71.1238 37.1479 71.2008 37.2527C71.2777 37.3575 71.3794 37.4417 71.4968 37.4978C71.6142 37.5538 71.7437 37.5801 71.8737 37.5742C72.1801 37.5555 72.4734 37.4433 72.7139 37.2528C72.9544 37.0623 73.1304 36.8028 73.2183 36.5092L73.9029 33.9606H78.7323L78.0107 36.6446C77.9534 36.7835 77.9322 36.9346 77.949 37.0839C77.9659 37.2331 78.0201 37.3758 78.1068 37.4985C78.1936 37.6213 78.3099 37.7202 78.4451 37.7862C78.5803 37.8521 78.73 37.8829 78.8804 37.8758C79.2302 37.8537 79.5644 37.7233 79.8364 37.5026C80.1084 37.2819 80.3046 36.9819 80.3977 36.6446L81.1193 33.9606H85.8747C85.8747 33.9606 85.1962 36.4969 85.19 36.5092C85.1441 36.631 85.1291 36.7622 85.1464 36.8912C85.1636 37.0202 85.2126 37.1429 85.289 37.2483C85.3653 37.3538 85.4667 37.4388 85.5839 37.4956C85.7012 37.5525 85.8308 37.5795 85.961 37.5742C86.2667 37.5559 86.5594 37.4446 86.7998 37.2553C87.0402 37.066 87.2167 36.8078 87.3056 36.5153L88.3788 32.514H81.4894L81.7052 31.7507Z" fill="white"/>
<path d="M48.2448 35.5611H47.628C47.4615 35.5611 47.3443 35.3887 47.2703 35.044L46.3636 29.9653H36.8713C36.543 30.0061 36.2349 30.1458 35.988 30.3658C35.7412 30.5857 35.5674 30.8755 35.4897 31.1965C35.2985 31.8921 35.6192 32.4277 36.199 32.4277H43.8903L44.6058 36.626C44.7785 37.5125 45.2226 37.9803 45.8887 38.0296H47.4923C47.8215 37.9891 48.1305 37.8497 48.3784 37.6298C48.6262 37.4099 48.8012 37.1199 48.8801 36.7984C49.0713 36.1274 48.8246 35.5611 48.2448 35.5611Z" fill="white"/>
<path d="M33.923 38.0664C34.6632 38.0664 35.3416 37.5985 35.9584 36.6628L38.1171 33.4248H35.5267L34.3548 35.0438C34.2338 35.2102 34.0766 35.347 33.8949 35.4441C33.7133 35.5411 33.5121 35.5958 33.3062 35.604H32.9793C32.651 35.6448 32.3429 35.7845 32.0961 36.0044C31.8493 36.2244 31.6754 36.5142 31.5978 36.8352C31.4065 37.5246 31.7273 38.0664 32.3071 38.0664H33.923Z" fill="white"/>
<path d="M45.2225 44.5673L44.2233 40.9415C44.1483 40.6123 43.9593 40.3201 43.6897 40.1163C43.42 39.9125 43.087 39.8102 42.7492 39.8273C42.3723 39.8064 41.9984 39.9038 41.6798 40.1058C41.3612 40.3079 41.114 40.6044 40.9729 40.9538L41.8549 43.8163C41.8549 44.3211 41.6575 44.5673 41.2381 44.5673H33.6208L41.2504 36.8355C41.454 36.2199 41.0901 35.7397 40.3438 35.7397C39.9253 35.7651 39.5164 35.8753 39.142 36.0637C38.7677 36.2521 38.4357 36.5147 38.1665 36.8355L30.0496 44.8382L29.5439 46.685H43.3105C44.6921 46.685 45.3335 45.9893 45.2225 44.5673Z" fill="white"/>
</g>
<defs>
<clipPath id="clip0">
<rect width="109.689" height="46.7665" fill="white" transform="translate(0 0.5)"/>
</clipPath>
</defs>
</svg>
