<svg width="148" height="48" viewBox="0 0 148 48" fill="none" xmlns="http://www.w3.org/2000/svg">
<path d="M35.2615 12.4043H0.791991C0.679186 12.4043 0.586891 12.4964 0.586891 12.6091V40.3637C0.584328 40.461 0.653549 40.548 0.750971 40.5685C1.28936 40.6657 3.10962 40.9908 5.42211 41.4055C6.14252 37.4636 6.8937 33.3783 7.20392 31.7657C7.59617 29.7129 8.14994 24.9186 11.3162 24.9186C11.0957 24.9186 8.08328 24.8162 6.41941 21.591C5.61696 20.0347 4.68119 16.7711 4.42738 15.8624C4.42225 15.8471 4.41969 15.8292 4.41969 15.8138C4.41969 15.7114 4.50429 15.6269 4.60684 15.6269C5.96306 15.6295 12.7467 15.6397 21.4071 15.6397C27.2908 15.6397 32.9619 19.876 32.1825 26.8742C31.498 33.0353 27.4806 37.5353 21.8942 37.5353H16.7103C16.6154 37.5353 16.5359 37.6044 16.5257 37.6991L15.5822 43.2408C17.2358 43.5428 18.5844 43.7911 19.3022 43.9293C21.1225 44.28 24.8937 44.9993 25.9116 47.1622C25.9654 47.2595 26.091 47.2953 26.1884 47.2416C26.2346 47.216 26.2679 47.175 26.2833 47.1238C26.5397 46.0283 27.3011 44.2672 29.4905 43.1333C31.1083 42.2937 34.5719 41.3005 35.3231 41.0983C35.4077 41.0727 35.4666 40.9959 35.4666 40.9064V12.6091C35.4666 12.4964 35.3743 12.4043 35.2615 12.4043Z" fill="white"/>
<path d="M27.0022 27.3967H24.3088L24.7568 24.6981H26.4269C26.4905 24.6981 26.5462 24.6525 26.5568 24.5882L27.1215 21.2383C27.14 21.1686 27.0976 21.0963 27.026 21.0775C27.0181 21.0748 27.0101 21.0748 27.0022 21.0748H25.3586L25.7377 18.7031C25.7562 18.5959 25.6847 18.4941 25.5813 18.4753C25.5707 18.4726 25.5574 18.4726 25.5468 18.4726H22.3233C22.2278 18.4726 22.1456 18.5423 22.1297 18.6388L21.7347 21.0748H19.0149L19.4125 18.6951C19.4311 18.5879 19.3595 18.486 19.2535 18.47C19.2428 18.4673 19.2296 18.4673 19.219 18.4673H15.9981C15.9027 18.4673 15.8231 18.537 15.8072 18.6308L15.399 21.0748H12.0932C12.0217 21.0748 11.9633 21.1338 11.9633 21.2061V21.2088C11.9633 22.8972 13.1642 24.3416 14.8078 24.6337L14.3518 27.3967H12.0906C12.019 27.3967 11.9607 27.4557 11.9607 27.528V27.5307C11.9607 28.8305 12.6764 30.0203 13.819 30.6179L13.363 33.389C13.3471 33.4988 13.4214 33.6007 13.5301 33.6168C13.538 33.6168 13.5486 33.6194 13.5566 33.6194H16.7801C16.8756 33.6194 16.9577 33.5498 16.971 33.456L17.3739 31.0146H20.0885L19.6962 33.3943C19.6776 33.5015 19.7518 33.6034 19.8579 33.6221C19.8685 33.6248 19.8791 33.6248 19.887 33.6248H23.1106C23.206 33.6248 23.2882 33.5551 23.3041 33.4613L23.707 31.0119H26.419C26.4826 31.0119 26.5356 30.9663 26.5489 30.902L27.1135 27.5521C27.1268 27.4825 27.0791 27.4128 27.0101 27.3994C27.0101 27.3967 27.0075 27.3967 27.0022 27.3967ZM17.9836 27.3967L18.4211 24.6981H21.1356L20.6876 27.3967H17.9836Z" fill="white"/>
<path d="M48.584 32.9162C48.2381 34.5576 47.6573 36.1387 46.8568 37.6142L45.324 36.6389C46.0689 35.372 46.6043 33.992 46.9073 32.5567L48.584 32.9162ZM45.6674 28.7585V27.0668H47.4755C47.2785 26.5038 47.0335 25.9583 46.7457 25.4355L48.3669 24.8171C48.6674 25.5511 48.9224 26.3027 49.1345 27.0668H50.7002C50.9502 26.3404 51.1825 25.5963 51.3795 24.8171L53.0335 25.4028C52.8517 25.9734 52.632 26.5289 52.3744 27.0668H54.1193V28.7585H50.8517V30.1939H53.8264V31.878H50.8517V38.1723H49.0007V31.8705H45.9553V30.1863H49.0007V28.7585H45.6674ZM48.9224 23.0424C48.7204 22.6201 48.4906 22.2104 48.2305 21.8183L50.1522 21.499C50.3668 21.9615 50.5537 22.4743 50.7759 23.0424H54.0158V24.7442H45.8416V23.0424H48.9224ZM53.7405 35.4852L52.1926 36.0859C51.9224 34.9925 51.5865 33.9141 51.1875 32.8609L52.7204 32.4612C53.1092 33.4516 53.4476 34.4621 53.7304 35.4877H53.7405V35.4852ZM61.6319 23.4698C60.0107 23.9851 58.3264 24.2892 56.6269 24.3722V27.1196H62.0056V28.8742H60.3667V38.1094H58.5158V28.8742H56.6117V30.5407C56.5234 33.6954 55.8289 36.194 54.5107 38.0717L53.1749 36.6741C54.19 35.2011 54.7431 33.1625 54.8138 30.5407V22.864C56.8238 22.8564 58.8188 22.5045 60.7077 21.8183L61.6319 23.4698Z" fill="white"/>
<path d="M74.6659 27.7222H69.2341V38.1717H67.3134V22.2563H74.6659V27.7222ZM72.7819 23.6096H69.2393V24.3215H72.7819V23.6096ZM69.2393 26.369H72.7819V25.5662H69.2393V26.369ZM70.442 30.0727V28.5049H79.8173V30.0727H78.5989V34.6473H80.0768V36.2151H78.5989V37.8713H76.8984V36.2151H70.2691V34.6473H71.6159V30.0727H70.442ZM73.3217 30.0727V30.8023H76.9062V30.0727H73.3217ZM76.9088 32.7412V32.0267H73.3164V32.7387L76.9088 32.7412ZM76.9088 34.6473V33.9707H73.3164V34.6473H76.9088ZM75.9655 27.7399V22.2563H83.2368V36.4272C83.2368 37.5683 82.6106 38.1364 81.3607 38.1364C80.7685 38.1364 80.1789 38.101 79.6077 38.0632L79.1649 36.407C79.6654 36.4752 80.1737 36.513 80.6794 36.5156C81.0856 36.5156 81.3057 36.2833 81.3057 35.8541V27.7374L75.9655 27.7399ZM81.324 23.6449H77.8443V24.3215H81.3188L81.324 23.6449ZM77.8443 26.3867H81.3188V25.5687H77.8443V26.3867Z" fill="white"/>
<path d="M101.863 24.8533L101.716 26.4146H104.468V27.8702H101.567L101.423 29.4164L90.9087 29.434L91.147 27.8878H88.5446V26.4323H91.3695L91.5947 24.8659L101.863 24.8533ZM102.169 30.0031L102.18 35.8631H100.407C101.627 36.0696 102.837 36.339 104.028 36.6639L103.421 38.1395C101.606 37.4974 99.7423 37.0013 97.8415 36.6563L98.284 35.8555H94.5924L95.1868 36.6185C93.8934 37.2405 92.0319 37.7593 89.6154 38.1723L88.7462 36.7344C90.2542 36.5556 91.7465 36.271 93.2101 35.8807H90.8669L90.8564 30.0207L102.169 30.0031ZM104.235 25.8959H102.426V24.2112L90.571 24.2288V25.916H88.7593V22.7758L95.5166 22.7632C95.3805 22.4408 95.226 22.1286 95.0532 21.8239L96.9906 21.499C97.1582 21.8717 97.3231 22.2998 97.4907 22.7607L104.232 22.7506L104.235 25.8959ZM100.36 31.6576V31.0557L92.6577 31.0683V31.6702L100.36 31.6576ZM100.36 33.1837V32.5969L92.6577 32.6095V33.1962L100.36 33.1837ZM100.36 34.1431L92.6577 34.1557V34.7576L100.36 34.745V34.1431ZM95.425 28.3789L95.535 27.6863H92.8959L92.7676 28.3789H95.425ZM95.6999 26.6564L95.8282 25.9462H93.2232L93.0949 26.669L95.6999 26.6564ZM97.1058 28.3763H99.7842L99.8732 27.6838H97.2158L97.1058 28.3763ZM97.3807 26.6539H100.004L100.077 25.9437H97.5116L97.3807 26.6539Z" fill="white"/>
<path d="M111.21 32.0685C111.18 33.7733 111.052 35.4754 110.827 37.1648L109.776 36.8418C110.035 35.2242 110.187 33.5887 110.23 31.9506L111.21 32.0685ZM116.808 29.7254C116.808 33.8014 116.639 36.1958 116.321 36.8854C116.004 37.575 115.363 37.9159 114.438 37.9185C114.171 37.9185 113.886 37.9005 113.601 37.8826L113.243 36.365C113.548 36.4188 113.858 36.4496 114.168 36.4522C114.809 36.4522 115.172 36.1086 115.267 35.4319C115.285 35.2678 115.303 35.0704 115.338 34.8525L114.609 35.1447C114.448 34.0604 114.251 32.9914 114.037 31.9634L114.854 31.7275C115.068 32.6684 115.23 33.5348 115.373 34.3295C115.409 33.5682 115.424 32.5581 115.421 31.3123H110.426L110.411 21.9476H116.76V23.555H114.756V24.6753H116.266V26.1211H114.756V27.2208H116.266V28.6667H114.756V29.7152L116.808 29.7254ZM112.708 36.5111L111.642 36.6572C111.621 34.7243 111.584 33.2221 111.528 32.1736L112.454 32.0634C112.562 33.1503 112.653 34.632 112.708 36.5111ZM112.015 23.5678V24.6881H113.17V23.5678H112.015ZM112.015 27.2362H113.182V26.1339H112.025L112.015 27.2362ZM112.015 29.7331H113.182V28.6846H112.025L112.015 29.7331ZM114.193 35.5498L113.233 35.7856C113.107 34.4116 112.963 33.1836 112.781 32.1351L113.636 31.9531C113.86 33.0555 114.042 34.2501 114.203 35.5498H114.193ZM117.764 38.1723L116.445 37.0007C117.582 35.8779 118.434 34.3936 118.964 32.5504L120.512 33.1811C120.388 33.5425 120.265 33.8681 120.159 34.2014C120.613 34.6192 121.036 35.073 121.425 35.5549L120.288 36.7136C120.056 36.3522 119.793 36.0112 119.503 35.6933C119.042 36.5983 118.457 37.434 117.764 38.1723ZM117.494 26.9107L116.551 25.4469C118.253 24.524 119.687 23.1628 120.706 21.499H122.181C123.006 22.9346 124.425 24.2164 126.437 25.3315L125.497 26.7979C125.015 26.5261 124.571 26.2544 124.163 25.9673V26.6774H118.689V26.1262C118.306 26.4108 117.907 26.6697 117.496 26.9081V26.9107H117.494ZM121.248 27.5746V32.4376H117.373V27.5746H121.248ZM119.829 28.9666H118.797V31.061H119.829V28.9666ZM121.432 23.1269C120.956 23.86 120.409 24.5419 119.801 25.1649H123.144C122.489 24.565 121.914 23.8754 121.437 23.1217L121.432 23.1269ZM121.901 38.1646L120.6 36.9854C121.737 35.8984 122.569 34.4346 123.119 32.6068L124.667 33.2375C124.526 33.6348 124.402 34.0168 124.266 34.3757C125.061 35.1576 125.794 36.0035 126.457 36.9033L125.27 38.1261C124.773 37.3186 124.206 36.5573 123.575 35.8523C123.132 36.6982 122.569 37.4776 121.909 38.1595L121.901 38.1646ZM125.618 27.5669V32.43H121.76V27.5669H125.618ZM124.208 28.9538H123.195V31.0508H124.208V28.9538Z" fill="white"/>
<path d="M131.85 26.3676V22.4495H138.666C138.424 21.988 138.148 21.542 137.846 21.1167L139.991 20.7407C140.246 21.2516 140.502 21.8194 140.739 22.4392L147.591 22.4288V26.3469H145.9V27.187H143.319C144.489 28.1153 145.58 29.1422 146.578 30.2546L145.18 31.6834C144.856 31.2218 144.505 30.7836 144.126 30.3687C142.999 30.462 141.852 30.5554 140.69 30.6306V32.1657H146.271V33.9419H140.69V35.6248L147.689 35.6144V37.3881L131.765 37.414V35.6377H138.764V33.9549H133.229V32.1812H138.764V30.7602C137.166 30.8562 135.529 30.9495 133.858 31.0247L133.42 29.3756C133.562 29.3392 133.701 29.2822 133.83 29.2096C134.41 28.9347 135.134 28.2579 136.044 27.1948H133.554V26.3624L131.85 26.3676ZM145.665 24.2232L133.779 24.2439V25.4808L145.665 25.4627V24.2232ZM136.475 29.3237C138.566 29.2278 140.654 29.0981 142.729 28.927L141.633 27.9416L142.394 27.1922H138.212C137.692 27.9468 137.109 28.6599 136.475 29.3237Z" fill="white"/>
</svg>
