<svg width="142" height="30" viewBox="0 0 142 30" fill="none" xmlns="http://www.w3.org/2000/svg">
<path d="M41.07 13.8933C41.07 13.8933 40.3704 13.8313 40.3704 12.6161C40.3704 11.4009 41.2082 11.3389 41.2082 11.3389H52.342L53.3599 16.5263C53.4395 16.8694 53.561 17.0471 53.7495 17.0471H54.3861C54.3861 17.0471 54.9139 17.0471 54.872 18.3739C54.872 19.5065 54.0594 19.6139 54.0594 19.6139H51.8394C51.0812 19.5643 50.5827 19.089 50.411 18.1879L49.5732 13.8933H41.07ZM42.6408 14.8688L40.2448 18.1755C40.014 18.5779 39.6868 18.9184 39.2917 19.167C38.8966 19.4156 38.4457 19.5648 37.9786 19.6015H36.6005C36.6005 19.6015 35.7879 19.6015 35.7879 18.3202C35.7879 17.0388 36.7011 17.0388 36.7011 17.0388H37.2875C37.5104 17.0387 37.7308 16.9923 37.9343 16.9025C38.1378 16.8128 38.3199 16.6818 38.4687 16.518L39.7631 14.8647L42.6408 14.8688ZM34.4098 29.2613L35.0465 27.0127L44.2618 16.9603C44.2618 16.9603 44.7854 16.4271 46.2599 16.5718C48.0024 16.7412 47.7092 17.9316 47.7092 17.9316L39.872 26.4382H47.4118C47.9564 26.4382 47.9731 26.4382 47.8307 25.8058L47.1395 22.3544C47.1395 22.3544 47.1395 21.3252 48.9407 21.2136C49.294 21.1879 49.6447 21.2893 49.9281 21.499C50.2114 21.7087 50.4083 22.0126 50.4822 22.3544L51.1901 26.7151C51.1901 28.4181 50.492 29.2696 49.0957 29.2696H34.4349L34.4098 29.2613Z" fill="white"/>
<path d="M71.7487 24.0215C72.4015 23.6642 72.8893 23.0719 73.11 22.3681L76.3689 11.2534H67.1536L65.0047 18.6191C65.6613 18.8312 66.2061 19.291 66.5201 19.8983C66.8341 20.5055 66.8916 21.2107 66.6802 21.8597C66.6695 21.9233 66.6483 21.9848 66.6174 22.0416C66.2071 23.3085 65.3153 24.3693 64.1293 25.0011L63.3627 26.547C63.2968 26.7179 63.183 26.8669 63.0348 26.9767C62.8865 27.0864 62.7097 27.1524 62.5249 27.167C62.5249 27.167 61.75 26.9686 61.5238 28.4732C61.3353 29.7504 62.4202 29.5892 62.4202 29.5892H63.2329C63.7281 29.6118 64.2187 29.4856 64.6397 29.2273C65.0608 28.969 65.3925 28.5907 65.5911 28.1425L67.652 24.2571H68.4186L67.4216 27.6548C67.074 28.8948 67.5054 29.5106 68.7285 29.5602H71.5057C71.5057 29.5602 72.1675 29.6346 72.5571 28.3202C72.9466 27.0058 72.2471 27.1835 72.2471 27.1835H71.3172C71.0072 27.1835 70.8983 27.0306 70.9947 26.7289L71.7487 24.0215ZM69.7883 13.2953H72.6241L72.1424 14.7627H69.2731L69.7883 13.2953ZM70.136 21.3348C70.1081 21.4681 70.0329 21.5873 69.9238 21.6707C69.8147 21.7541 69.679 21.7962 69.5412 21.7895H67.1452L67.5976 20.3469H70.4501L70.136 21.3348ZM68.1631 18.3339L68.628 16.8459H71.4806L71.0156 18.3339H68.1631Z" fill="white"/>
<path d="M59.3959 22C59.6569 21.2137 60.1026 20.4994 60.6966 19.9154C61.2906 19.3314 62.0161 18.8942 62.8139 18.6396C63.766 17.6481 64.6228 16.5715 65.3733 15.4238C65.5563 15.0032 65.6339 14.5452 65.5995 14.0887C65.478 13.7456 65.1471 13.5761 64.5983 13.5761H63.2328L63.6224 12.2328C63.6676 12.0954 63.6756 11.9486 63.6455 11.8072C63.6153 11.6658 63.5481 11.5346 63.4506 11.4268C63.1695 11.2784 62.8563 11.199 62.5375 11.1953C62.1334 11.2014 61.7369 11.3035 61.3814 11.4929C61.102 11.6724 60.8832 11.93 60.753 12.2328L60.3635 13.5761H59.1068C58.7773 13.5542 58.4523 13.6611 58.2021 13.8738C57.9756 14.1316 57.8084 14.4348 57.712 14.7624C57.6241 15.0227 57.6241 15.304 57.712 15.5643C57.7961 15.6821 57.9088 15.7771 58.0398 15.8407C58.1708 15.9042 58.3159 15.9343 58.4618 15.9281H62.3196C60.716 17.8383 58.821 19.4908 56.7025 20.8261C56.5241 20.8572 56.3538 20.9234 56.2018 21.0206C56.0498 21.1179 55.9191 21.2443 55.8175 21.3923C55.716 21.5404 55.6456 21.707 55.6105 21.8824C55.5754 22.0578 55.5764 22.2383 55.6134 22.4134C55.6251 22.4797 55.6434 22.5448 55.6678 22.6076C55.7031 22.7519 55.7702 22.8867 55.8643 23.0025C55.9584 23.1182 56.0773 23.212 56.2124 23.2772C56.3855 23.426 56.6871 23.426 57.1172 23.2772C57.536 22.9796 57.9549 22.7399 58.2356 22.5374L56.426 28.6424C56.3741 28.7605 56.3675 28.8932 56.4076 29.0157C56.4477 29.1382 56.5317 29.2421 56.6438 29.3079C56.8811 29.4748 57.1699 29.5552 57.4606 29.5352C57.824 29.5388 58.1835 29.4611 58.512 29.3079C58.6813 29.2652 58.8375 29.1823 58.9667 29.0663C59.096 28.9502 59.1945 28.8047 59.2534 28.6424L60.2881 25.0877C59.8245 24.7347 59.4877 24.2444 59.3271 23.6887C59.1665 23.133 59.1906 22.5412 59.3959 22Z" fill="white"/>
<path d="M62.2736 24.5663C63.0378 24.5197 63.7691 24.2426 64.3685 23.7724C64.9678 23.3022 65.4063 22.6617 65.6246 21.9375C65.8059 21.4769 65.7954 20.9643 65.5953 20.5113C65.3952 20.0584 65.0218 19.7019 64.5565 19.5194C64.2905 19.4155 64.0042 19.3717 63.7187 19.3913C62.9559 19.4425 62.2269 19.7213 61.6284 20.1908C61.0299 20.6603 60.5902 21.2983 60.3677 22.0201C60.2489 22.3152 60.208 22.6353 60.2491 22.9502C60.2901 23.2652 60.4116 23.5647 60.6022 23.8205C60.7928 24.0764 61.0462 24.2802 61.3386 24.4128C61.6309 24.5455 61.9527 24.6025 62.2736 24.5787V24.5663Z" fill="white"/>
<path d="M79.3555 25.475C79.5273 25.0988 79.9294 24.235 79.5189 23.6852C79.3498 23.4387 79.0912 23.2657 78.7966 23.2018C78.5019 23.138 78.1937 23.1882 77.9355 23.3421C77.5669 23.524 77.4245 23.9043 77.2444 24.3879C76.9894 25.217 76.4996 25.957 75.8327 26.5207C75.6009 26.6904 75.4433 26.9408 75.392 27.2211C75.3406 27.5013 75.3994 27.7904 75.5563 28.0294C75.6661 28.1828 75.8109 28.3087 75.9789 28.397C76.1469 28.4853 76.3336 28.5335 76.5239 28.5378C76.737 28.5349 76.9469 28.487 77.1396 28.3973C78.0277 27.9839 79.2047 25.785 79.3052 25.5618L79.3555 25.475Z" fill="white"/>
<path d="M85.2701 22.9909C85.5963 23.0128 85.9195 22.9179 86.1804 22.7235C86.4412 22.5291 86.6223 22.2483 86.6901 21.9327C86.7888 21.7551 86.812 21.5461 86.7547 21.3516C86.6974 21.157 86.5642 20.9929 86.3843 20.8952C86.222 20.8079 86.0335 20.7801 85.8523 20.8167H83.5988L83.9883 19.4692H86.5016C86.823 19.492 87.1419 19.399 87.3992 19.2074C87.6564 19.0159 87.8346 18.7388 87.9007 18.4276C87.9557 18.2946 87.979 18.1509 87.9688 18.0075C87.9587 17.8642 87.9153 17.7251 87.842 17.6009C87.7447 17.4979 87.6244 17.4188 87.4905 17.37C87.3567 17.3212 87.2131 17.304 87.0713 17.3198H86.5226L87.6703 15.0341C87.9841 15.048 88.2926 14.9506 88.54 14.7596C88.7874 14.5685 88.9574 14.2964 89.0191 13.9925C89.0894 13.8664 89.1209 13.7228 89.1097 13.5794C89.0986 13.4359 89.0453 13.2987 88.9564 13.1847C88.8675 13.0707 88.7469 12.9847 88.6092 12.9373C88.4715 12.8898 88.3228 12.8831 88.1813 12.9178H85.8649L86.0283 12.3556C86.0911 12.2068 86.1177 12.0456 86.106 11.8848C86.0944 11.7241 86.0448 11.5682 85.9613 11.4297C85.8491 11.3113 85.7103 11.2204 85.5561 11.1644C85.4019 11.1084 85.2365 11.0889 85.0732 11.1073C84.7007 11.079 84.3303 11.1849 84.0308 11.4053C83.7312 11.6256 83.5227 11.9456 83.4438 12.306L83.2888 12.9054H80.876C80.5585 12.8809 80.2426 12.9702 79.9864 13.157C79.7301 13.3438 79.5508 13.6154 79.4812 13.9222C79.4106 14.05 79.3787 14.195 79.3891 14.3402C79.3996 14.4853 79.452 14.6244 79.5402 14.741C79.6284 14.8577 79.7487 14.9469 79.8867 14.9981C80.0247 15.0493 80.1747 15.0603 80.3189 15.0299H80.3608L80.2142 17.3157H79.3765C79.0514 17.2953 78.7299 17.3915 78.4712 17.5868C78.2125 17.7821 78.0341 18.0631 77.969 18.378C77.9127 18.5109 77.889 18.6551 77.8999 18.7988C77.9109 18.9424 77.9561 19.0815 78.0319 19.2047C78.1294 19.3086 78.2504 19.3882 78.3851 19.437C78.5198 19.4859 78.6643 19.5026 78.8068 19.4857H81.3703L81.0017 20.8043H78.4633C78.1359 20.7815 77.8111 20.8765 77.5493 21.0718C77.2874 21.2672 77.1062 21.5495 77.0391 21.8666C76.9692 21.9946 76.9377 22.1397 76.9484 22.2848C76.9591 22.4298 77.0115 22.5689 77.0994 22.6856C77.1873 22.8023 77.3072 22.8919 77.4449 22.9438C77.5826 22.9956 77.7325 23.0077 77.8769 22.9785H80.3566L78.7691 28.4511C78.705 28.5989 78.6777 28.7596 78.6893 28.92C78.701 29.0803 78.7513 29.2356 78.8361 29.3728C78.95 29.4939 79.0915 29.5867 79.2487 29.6434C79.406 29.7002 79.5747 29.7194 79.7409 29.6994C80.1112 29.7262 80.4788 29.6194 80.7754 29.399C81.072 29.1785 81.2775 28.8593 81.3536 28.5007L82.9579 22.9785L85.2701 22.9909ZM82.8197 14.9349H85.2785L84.0218 17.4149H82.6772L82.8197 14.9349Z" fill="white"/>
<path d="M97.9203 11.8678C97.7386 11.632 97.4774 11.4682 97.1839 11.406C96.8904 11.3439 96.584 11.3874 96.3202 11.5288C95.0008 12.029 93.3881 12.2274 91.5115 12.6407C91.1179 12.7154 90.7332 12.8303 90.3638 12.9838C90.1852 13.086 90.0297 13.223 89.9065 13.3864C89.7834 13.5499 89.6952 13.7363 89.6475 13.9345L89.2789 15.1993L87.1091 22.5361C86.9708 22.8296 86.82 23.1685 86.6651 23.5281C86.3802 24.177 86.0619 24.9087 85.7016 25.5659C85.5523 25.1335 85.3571 24.7178 85.1194 24.3258C84.8597 23.9414 84.3822 23.2305 83.5779 23.4992C83.4473 23.5361 83.3263 23.6007 83.2236 23.6885C83.1209 23.7764 83.0388 23.8852 82.9831 24.0076C82.9268 24.2241 82.9156 24.4497 82.9501 24.6707C82.9847 24.8916 83.0643 25.1033 83.1842 25.2931C83.641 26.2548 83.9542 27.2767 84.1141 28.327C84.1515 28.5877 84.2832 28.8263 84.4849 28.9988C84.6866 29.1712 84.9447 29.2659 85.2115 29.2653H85.3414C85.4816 29.2551 85.6181 29.2156 85.7416 29.1493C85.8651 29.083 85.9729 28.9915 86.0577 28.8809C86.0952 28.8282 86.1287 28.7729 86.1582 28.7155L86.1959 28.6866C87.3185 27.6036 88.2652 25.5493 89.0987 23.7265C89.2705 23.3586 89.4338 23.0032 89.593 22.6684L89.6182 22.6105L90.4978 19.6758H92.4623L89.903 28.4014C89.8241 28.546 89.7891 28.7099 89.802 28.8736C89.815 29.0373 89.8755 29.1939 89.9761 29.3246C90.0768 29.4554 90.2135 29.5548 90.3699 29.6109C90.5263 29.6671 90.6957 29.6777 90.858 29.6414C91.2308 29.6706 91.6015 29.5651 91.9013 29.3446C92.2011 29.1241 92.4094 28.8035 92.4875 28.4427L95.0426 19.6882H95.7966C96.1565 19.7163 96.5143 19.6132 96.8023 19.3984C97.0903 19.1835 97.2884 18.8719 97.359 18.5226C97.4206 18.3779 97.447 18.2211 97.4361 18.0647C97.4251 17.9082 97.3773 17.7564 97.2962 17.6215C97.1863 17.5088 97.0519 17.4224 96.9031 17.3687C96.7543 17.315 96.5951 17.2954 96.4375 17.3115H91.1931L91.8382 15.0546L91.8927 14.8769C93.6579 14.5628 95.4033 14.1488 97.1203 13.6369C97.7737 13.4137 98.1423 13.1367 98.2345 12.7895C98.2643 12.6222 98.2512 12.4502 98.1963 12.2892C98.1414 12.1282 98.0466 11.9833 97.9203 11.8678Z" fill="white"/>
<path d="M111.274 11.7036V11.7697C111.274 11.7697 111.006 12.6667 110.893 13.0594L109.636 17.3829C109.572 17.5502 109.548 17.7302 109.567 17.9083C109.586 18.0864 109.647 18.2575 109.745 18.408C109.858 18.5497 110.005 18.6616 110.172 18.7337C110.339 18.8059 110.522 18.836 110.704 18.8213H114.931L112.568 26.96C112.521 27.0756 112.442 27.1758 112.34 27.2489C112.237 27.3221 112.116 27.3652 111.99 27.3733C111.939 27.3651 111.887 27.3651 111.835 27.3733H110.855C110.808 27.3653 110.76 27.3653 110.713 27.3733H110.683C110.602 27.382 110.525 27.4104 110.457 27.456C110.31 27.5827 110.19 27.7379 110.106 27.9121C110.021 28.0863 109.974 28.2758 109.967 28.4687C109.93 28.6065 109.928 28.751 109.96 28.8898C109.992 29.0287 110.058 29.1579 110.151 29.2664C110.294 29.3954 110.482 29.4638 110.675 29.4566H112.539C112.891 29.469 113.241 29.3907 113.553 29.2292C113.962 29.0542 114.312 28.7674 114.562 28.4025C114.846 27.956 115.059 27.4696 115.195 26.96L119.203 13.1172C119.317 12.7328 119.601 11.8441 119.601 11.8359L119.643 11.7119L111.274 11.7036ZM115.706 16.0602L115.45 16.9448H112.661C112.518 16.9448 112.426 16.9158 112.384 16.858C112.361 16.8145 112.349 16.7663 112.349 16.7174C112.349 16.6685 112.361 16.6203 112.384 16.5769L112.531 16.0602H115.706ZM116.347 13.8571L116.187 14.349H113.017L113.13 13.9604C113.153 13.8352 113.223 13.7233 113.327 13.6467C113.43 13.5702 113.558 13.5346 113.687 13.5471H116.108C116.187 13.5471 116.288 13.5471 116.326 13.6132C116.348 13.6497 116.361 13.6906 116.365 13.7328C116.368 13.775 116.362 13.8175 116.347 13.8571Z" fill="white"/>
<path d="M106.587 18.7665C107.002 18.7715 107.407 18.6375 107.735 18.3862C108.065 18.1375 108.303 17.7891 108.413 17.3942L109.67 13.1078C109.781 12.8665 109.791 12.5917 109.698 12.3431C109.604 12.0946 109.415 11.8925 109.171 11.781C108.991 11.7019 108.793 11.6747 108.598 11.7025H101.862L96.9778 28.5006C96.9157 28.6497 96.8897 28.8111 96.9021 28.9719C96.9145 29.1327 96.9648 29.2884 97.049 29.4265C97.1636 29.5466 97.3052 29.6384 97.4624 29.6944C97.6196 29.7504 97.7879 29.7691 97.9538 29.7489C98.326 29.7783 98.6963 29.6734 98.9959 29.4537C99.2956 29.234 99.5043 28.9144 99.5833 28.5544L102.427 18.7665H106.587ZM103.822 13.9676C103.843 13.8442 103.91 13.733 104.01 13.6563C104.111 13.5797 104.236 13.5432 104.363 13.5543H106.679C106.763 13.5543 106.876 13.5543 106.918 13.6245C106.947 13.6947 106.947 13.7734 106.918 13.8436L106.775 14.3396H103.705L103.822 13.9676ZM106.281 16.0591L106.16 16.4724C106.133 16.5979 106.061 16.7094 105.957 16.7857C105.853 16.8619 105.723 16.8976 105.594 16.8858H102.968L103.215 16.0591H106.281Z" fill="white"/>
<path d="M112.137 21.2227C112.409 21.2428 112.679 21.1652 112.898 21.0041C113.117 20.8431 113.269 20.6095 113.327 20.3464C113.387 20.2377 113.414 20.1141 113.405 19.9904C113.396 19.8668 113.351 19.7484 113.275 19.6494C113.2 19.5504 113.097 19.475 112.979 19.4322C112.861 19.3894 112.733 19.3811 112.61 19.4082H104.174C103.9 19.3893 103.628 19.4689 103.409 19.6322C103.189 19.7955 103.037 20.0316 102.98 20.2968C102.922 20.4058 102.896 20.5289 102.906 20.6517C102.916 20.7745 102.961 20.892 103.037 20.9904C103.112 21.0888 103.214 21.1641 103.331 21.2074C103.447 21.2508 103.574 21.2604 103.697 21.2351H103.961L102.436 26.4845H101.983C101.683 26.475 101.389 26.5744 101.157 26.764C100.926 26.9537 100.773 27.2203 100.727 27.5138C100.649 27.7548 100.666 28.0156 100.773 28.2454C100.882 28.4066 101.1 28.4768 101.447 28.4603C102.934 28.3446 104.937 28.1999 107.395 28.0222C107.299 28.2108 107.28 28.4285 107.342 28.6306C107.403 28.8327 107.541 29.004 107.726 29.1093C107.9 29.1986 108.1 29.2249 108.292 29.1837C108.638 29.2081 108.981 29.1081 109.258 28.9022C109.535 28.6963 109.728 28.3984 109.8 28.0635L111.789 21.2186L112.137 21.2227ZM108.141 25.4843L107.948 26.158L104.828 26.344L105.075 25.4843H108.141ZM108.769 23.3266L108.577 23.9921H105.51L105.703 23.3266H108.769ZM109.381 21.2227L109.205 21.8303H106.135L106.31 21.2227H109.381Z" fill="white"/>
<path d="M130.253 12.1496L127.858 20.2387L127.95 20.2635L126.94 23.6529C126.938 23.642 126.938 23.6308 126.94 23.6198C126.68 23.2437 126.199 22.5451 125.399 22.7931C125.267 22.8278 125.145 22.891 125.041 22.9783C124.938 23.0656 124.855 23.1746 124.8 23.2974C124.747 23.507 124.738 23.7251 124.773 23.9383C124.808 24.1514 124.887 24.3553 125.005 24.5374C125.365 25.3353 125.646 26.1659 125.843 27.0175L125.357 28.646C125.301 28.7792 125.278 28.9232 125.289 29.0667C125.3 29.2102 125.345 29.3492 125.42 29.4727C125.525 29.5848 125.656 29.6706 125.802 29.7231C125.947 29.7755 126.104 29.7931 126.257 29.7745C126.594 29.8004 126.929 29.7055 127.201 29.5074C127.472 29.3092 127.662 29.021 127.736 28.6956L131.891 14.7537C131.916 14.6281 131.987 14.5161 132.091 14.4396C132.195 14.3631 132.324 14.3277 132.453 14.3403H138.162C138.211 14.3338 138.262 14.3377 138.309 14.352C138.357 14.3663 138.401 14.3905 138.438 14.423C138.459 14.4656 138.47 14.5122 138.47 14.5594C138.47 14.6066 138.459 14.6533 138.438 14.6958L134.79 26.9596C134.745 27.0823 134.666 27.1899 134.561 27.2697C134.457 27.3495 134.331 27.3982 134.199 27.4101H133.047C133 27.4021 132.952 27.4021 132.905 27.4101H132.88C132.795 27.4222 132.714 27.4518 132.641 27.497C132.493 27.6226 132.373 27.777 132.288 27.9505C132.203 28.124 132.155 28.3129 132.147 28.5055C132.11 28.6423 132.107 28.786 132.138 28.9242C132.169 29.0624 132.234 29.191 132.327 29.2991C132.473 29.4307 132.665 29.5018 132.863 29.4975C132.894 29.5017 132.925 29.5017 132.955 29.4975H134.023C134.054 29.5017 134.085 29.5017 134.116 29.4975H134.765C135.099 29.5136 135.433 29.4485 135.736 29.308C136.039 29.1675 136.302 28.9558 136.503 28.6915L136.532 28.6626C136.809 28.2743 137.014 27.8404 137.136 27.3812L141.22 13.5261L141.639 12.1455L130.253 12.1496Z" fill="white"/>
<path d="M121.344 24.6486C121.516 24.2807 121.918 23.4085 121.503 22.8877C121.33 22.6466 121.071 22.4784 120.778 22.4164C120.484 22.3544 120.178 22.4031 119.92 22.5529C119.555 22.7307 119.409 23.1068 119.229 23.5821C118.97 24.397 118.482 25.1225 117.821 25.6736C117.589 25.8367 117.431 26.0833 117.382 26.3602C117.333 26.637 117.396 26.922 117.557 27.1534C117.667 27.305 117.812 27.4291 117.979 27.5159C118.146 27.6028 118.332 27.6499 118.521 27.6535C118.734 27.6487 118.943 27.6009 119.137 27.513C120.025 27.1286 121.206 24.9544 121.302 24.7312L121.344 24.6486Z" fill="white"/>
<path d="M125.047 22.0993H126.023C127.112 22.0993 127.661 21.4545 127.661 20.1649L127.451 18.7347C127.39 18.4681 127.235 18.2318 127.013 18.0682C126.791 17.9046 126.517 17.8243 126.241 17.8419C126.078 17.8331 125.916 17.8622 125.766 17.9268C125.617 17.9915 125.486 18.0898 125.382 18.2139C125.331 18.2975 125.299 18.3911 125.288 18.4882C125.277 18.5852 125.288 18.6835 125.319 18.7761L125.516 19.5449C125.546 19.6498 125.561 19.7582 125.562 19.8673C125.475 19.8838 125.385 19.8838 125.298 19.8673H123.43L128.754 14.9733L129.039 14.7088V14.684C129.072 14.4927 129.03 14.296 128.921 14.1342C128.816 14.0063 128.683 13.9029 128.533 13.8315C128.382 13.76 128.217 13.7223 128.05 13.7209C127.095 13.63 126.739 13.973 126.727 13.9854L125.755 14.9031L125.529 15.1097H124.67L125.227 14.622L125.541 14.3368L126.337 13.63H126.316L127.279 12.7454V12.7206C127.3 12.6298 127.3 12.5359 127.281 12.4448C127.263 12.3537 127.225 12.2674 127.171 12.1915C127.066 12.0727 126.938 11.977 126.793 11.9107C126.649 11.8445 126.492 11.8092 126.333 11.8071C125.42 11.7203 125.076 12.0469 125.076 12.0593L123.585 13.4646L121.876 15.0477C121.684 15.1713 121.537 15.3524 121.457 15.5644L120.933 17.3376H123.133L120.82 19.4829C120.397 19.7602 120.059 20.1479 119.844 20.603L119.405 22.091H122.492L120.548 28.6507C120.498 28.7789 120.478 28.9168 120.49 29.0537C120.502 29.1906 120.547 29.3229 120.619 29.4402C120.726 29.5508 120.857 29.6352 121.002 29.6869C121.148 29.7386 121.304 29.756 121.457 29.7378C121.782 29.7639 122.105 29.6739 122.368 29.4842C122.631 29.2945 122.816 29.0177 122.89 28.7045L124.846 22.091L125.047 22.0993Z" fill="white"/>
<path d="M134.023 26.8692C134.136 26.8692 134.631 26.8113 134.92 25.8359C135.058 25.3812 135.05 25.0877 134.899 24.9348C134.856 24.8958 134.804 24.8678 134.748 24.8534C134.692 24.8389 134.633 24.8385 134.576 24.8521H132.235C132.189 24.8521 132.113 24.8521 132.109 24.8108C132.112 24.651 132.143 24.493 132.201 24.3437L132.7 22.6903H134.702C134.997 22.7132 135.291 22.6299 135.529 22.456C135.766 22.282 135.932 22.0291 135.996 21.7438C136.055 21.628 136.079 21.4983 136.066 21.3695C136.054 21.2408 136.004 21.1181 135.925 21.0155C135.845 20.913 135.737 20.8347 135.614 20.7895C135.491 20.7443 135.358 20.7341 135.23 20.76H134.442L134.861 19.4208H135.632C135.926 19.4387 136.218 19.3536 136.456 19.1805C136.693 19.0075 136.861 18.7574 136.93 18.4743C136.98 18.3559 137 18.2278 136.991 18.1001C136.981 17.9724 136.942 17.8486 136.876 17.7385C136.807 17.6624 136.724 17.6011 136.63 17.5585C136.536 17.5158 136.435 17.4927 136.331 17.4905L137.4 15.4238H135.305L134.237 17.5153L134.379 15.4238H132.285L132.147 17.4905C131.907 17.4865 131.674 17.5679 131.49 17.7197C131.306 17.8715 131.184 18.0837 131.146 18.3172C131.084 18.4563 131.057 18.6077 131.065 18.7592C131.074 18.9107 131.119 19.0581 131.196 19.1894C131.281 19.2838 131.388 19.3568 131.507 19.4021C131.627 19.4474 131.756 19.4638 131.883 19.4498H132.557L132.168 20.76H131.376C131.064 20.7605 130.764 20.8788 130.538 21.0907C130.295 21.3143 130.119 21.6006 130.031 21.9174C129.999 22.0063 129.985 22.1008 129.99 22.1952C129.995 22.2896 130.019 22.3821 130.061 22.4671C130.101 22.5357 130.158 22.5932 130.227 22.6344C130.296 22.6755 130.374 22.699 130.455 22.7027L130.011 24.2569C129.717 25.2448 129.684 25.9103 129.897 26.2947C130.111 26.6791 130.681 26.8651 131.627 26.8733H134.023V26.8692Z" fill="white"/>
<path d="M12.1799 0.505859V3.27524C14.1472 1.61188 16.6172 0.638088 19.2045 0.505859H12.1799Z" fill="white"/>
<path d="M31.5363 12.0794C31.5366 12.9136 31.4439 13.7452 31.2598 14.5594L35.0632 1.29534C35.0898 1.2032 35.0943 1.10624 35.0765 1.01208C35.0587 0.917916 35.019 0.829107 34.9606 0.752619C34.9021 0.676132 34.8265 0.614046 34.7397 0.571233C34.6528 0.52842 34.5571 0.506043 34.4601 0.505859H20.4025C23.4089 0.656501 26.2414 1.94204 28.3139 4.09638C30.3864 6.25073 31.5402 9.10893 31.5363 12.0794Z" fill="white"/>
<path d="M27.2093 21.0696C25.0782 22.7725 22.4099 23.6847 19.668 23.6477C16.926 23.6107 14.284 22.6268 12.2009 20.8671V29.3117C12.2009 29.4761 12.2671 29.6338 12.3849 29.7501C12.5027 29.8663 12.6625 29.9317 12.8292 29.9317H26.3715C26.5087 29.9323 26.6424 29.8886 26.7521 29.8073C26.8617 29.7259 26.9414 29.6114 26.9789 29.4811L30.8619 15.9194C30.1492 17.9358 28.885 19.7183 27.2093 21.0696Z" fill="white"/>
<path d="M8.07496 0.505859H8.00794L0.363395 29.1586C0.338974 29.2506 0.336334 29.3469 0.355681 29.4401C0.375028 29.5333 0.415842 29.6208 0.474965 29.696C0.534089 29.7711 0.609935 29.8318 0.696636 29.8733C0.783337 29.9149 0.878568 29.9362 0.974958 29.9357H7.44664C7.61328 29.9357 7.7731 29.8703 7.89093 29.7541C8.00876 29.6378 8.07496 29.4801 8.07496 29.3157V0.505859Z" fill="white"/>
<path d="M25.76 12.852C25.7824 11.9622 25.6242 11.077 25.2947 10.2485C24.9651 9.41993 24.4709 8.66486 23.841 8.0277C23.2112 7.39055 22.4586 6.8842 21.6274 6.53848C20.7962 6.19275 19.9034 6.01465 19.0014 6.01465C18.0994 6.01465 17.2065 6.19275 16.3753 6.53848C15.5442 6.8842 14.7915 7.39055 14.1617 8.0277C13.5319 8.66486 13.0376 9.41993 12.7081 10.2485C12.3785 11.077 12.2203 11.9622 12.2428 12.852C12.2428 12.9223 12.2428 12.9925 12.2428 13.0628C12.2972 13.4831 12.3883 13.898 12.515 14.3028C12.4499 13.9579 12.4162 13.6079 12.4145 13.2571C12.4145 12.0553 12.7756 10.8806 13.4522 9.88137C14.1288 8.88217 15.0905 8.10338 16.2156 7.64349C17.3408 7.18361 18.5789 7.06328 19.7733 7.29773C20.9677 7.53217 22.0649 8.11087 22.926 8.96062C23.7872 9.81038 24.3736 10.893 24.6112 12.0717C24.8488 13.2503 24.7269 14.472 24.2608 15.5823C23.7948 16.6926 23.0056 17.6415 21.993 18.3092C20.9804 18.9768 19.7899 19.3332 18.572 19.3332C18.2165 19.3315 17.8618 19.2983 17.5123 19.234C17.9226 19.3579 18.343 19.4464 18.7689 19.4985H18.9867C20.7769 19.4996 22.4947 18.8009 23.7641 17.5553C25.0335 16.3096 25.7511 14.6185 25.76 12.852Z" fill="white"/>
<path d="M19.7867 4.56885C18.4132 4.56724 17.065 4.93259 15.885 5.62613C14.705 6.31967 13.7373 7.31551 13.0846 8.50798C13.7194 7.67764 14.5273 6.99136 15.4538 6.49547C16.3803 5.99958 17.4039 5.70561 18.4554 5.63343C19.5069 5.56125 20.5618 5.71253 21.549 6.07705C22.5362 6.44158 23.4326 7.01086 24.1778 7.74647C24.923 8.48208 25.4995 9.36689 25.8685 10.3412C26.2375 11.3154 26.3904 12.3565 26.3168 13.3941C26.2433 14.4316 25.9449 15.4415 25.442 16.3556C24.9391 17.2697 24.2433 18.0666 23.4016 18.6927C24.8916 17.8989 26.0706 16.6373 26.7519 15.1077C27.4331 13.578 27.5778 11.8678 27.1628 10.2479C26.7478 8.62802 25.797 7.19105 24.4609 6.16462C23.1248 5.13819 21.4799 4.58098 19.7867 4.58125V4.56885Z" fill="white"/>
<path d="M18.5804 18.9285C19.7154 18.9285 20.8249 18.5964 21.7686 17.9742C22.7123 17.352 23.4478 16.4676 23.8822 15.4328C24.3165 14.3981 24.4302 13.2595 24.2088 12.161C23.9873 11.0626 23.4408 10.0536 22.6382 9.26161C21.8356 8.46966 20.8131 7.93034 19.6999 7.71184C18.5867 7.49334 17.4329 7.60548 16.3843 8.03408C15.3357 8.46268 14.4394 9.18849 13.8089 10.1197C13.1783 11.051 12.8417 12.1458 12.8417 13.2658C12.8428 14.7673 13.4478 16.207 14.5238 17.2688C15.5997 18.3305 17.0587 18.9275 18.5804 18.9285Z" fill="white"/>
</svg>
