<svg width="36" height="36" viewBox="0 0 36 36" fill="none" xmlns="http://www.w3.org/2000/svg">
<path d="M33.2564 2.57141H2.74799C2.64989 2.57141 2.57141 2.64979 2.57141 2.74776V27.3194C2.57141 27.4076 2.63027 27.4762 2.71856 27.4958C3.18943 27.584 4.72956 27.8583 6.72095 28.211C7.35858 24.7329 8.01584 21.1275 8.29051 19.7069C8.63385 17.8846 9.12434 13.6424 11.9299 13.6424C11.7435 13.6424 9.06548 13.5542 7.58421 10.7032C6.8779 9.33156 6.04407 6.44135 5.81845 5.63797C5.81845 5.61838 5.80864 5.60858 5.80864 5.58898C5.80864 5.50081 5.88711 5.42243 5.9754 5.42243C7.17219 5.42243 13.1856 5.43223 20.8372 5.43223C26.0462 5.43223 31.0688 9.1846 30.3821 15.3765C29.7739 20.8336 26.2228 24.8113 21.2786 24.8113H16.6975C16.619 24.8113 16.5503 24.8701 16.5307 24.9485L15.6969 29.8275C17.2272 30.1019 18.4731 30.337 19.1205 30.4644C20.7293 30.7779 24.0646 31.4147 24.9671 33.3252C25.0064 33.4134 25.1143 33.4526 25.2026 33.4134C25.2516 33.3938 25.2908 33.3448 25.3007 33.2958C25.5263 32.3357 26.2032 30.7779 28.1357 29.7688C29.5679 29.0242 32.6384 28.1522 33.2956 27.9661C33.3741 27.9465 33.4231 27.8779 33.4231 27.7995V2.74776C33.433 2.64979 33.3545 2.57141 33.2564 2.57141Z" fill="#1F1F1F"/>
<path d="M25.831 16.2884H23.5355L23.9083 13.9959H25.3405C25.3896 13.9959 25.4386 13.9567 25.4484 13.9077L25.9291 11.0763C25.9389 11.0175 25.8899 10.9587 25.831 10.9489H25.8212H24.4184L24.752 8.94045C24.7716 8.85228 24.7029 8.7641 24.6146 8.74451C24.6048 8.74451 24.595 8.74451 24.5852 8.74451H21.8188C21.7403 8.74451 21.6619 8.80329 21.6521 8.88167L21.3087 10.9489H18.9838L19.3173 8.94045C19.337 8.85228 19.2683 8.7641 19.18 8.74451C19.1702 8.74451 19.1604 8.74451 19.1506 8.74451H16.4038C16.3352 8.74451 16.2665 8.79349 16.2567 8.87187L15.9133 10.9489H13.0881C13.0293 10.9489 12.9802 10.9979 12.9802 11.0567C12.9802 12.4871 14.0103 13.702 15.413 13.9567L15.0207 16.2884H13.0881C13.0293 16.2884 12.9802 16.3374 12.9802 16.3962C12.9802 17.4935 13.5982 18.5026 14.5694 19.0121L14.177 21.3439C14.1672 21.432 14.2261 21.5202 14.3144 21.5398C14.3242 21.5398 14.334 21.5398 14.3438 21.5398H17.1101C17.1886 21.5398 17.2573 21.481 17.2769 21.4026L17.6202 19.3354H19.9354L19.592 21.3537C19.5724 21.4418 19.6411 21.53 19.7293 21.5496C19.7392 21.5496 19.749 21.5496 19.7588 21.5496H22.5251C22.6036 21.5496 22.6723 21.4908 22.6919 21.4124L23.0352 19.3452H25.3602C25.4092 19.3452 25.4583 19.306 25.4681 19.257L25.9487 16.4256C25.9586 16.3668 25.9095 16.308 25.8506 16.2982C25.8408 16.2884 25.8408 16.2884 25.831 16.2884ZM18.1107 16.2884L18.4835 13.9959H20.8182L20.4455 16.2884H18.1107Z" fill="#1F1F1F"/>
</svg>
